<?xml version="1.0" encoding="utf-8"?>
<!-- Generator: Adobe Illustrator 23.0.6, SVG Export Plug-In . SVG Version: 6.00 Build 0)  -->
<svg version="1.1" xmlns="http://www.w3.org/2000/svg" xmlns:xlink="http://www.w3.org/1999/xlink" x="0px" y="0px"
	 viewBox="0 0 2000 2000" style="enable-background:new 0 0 2000 2000;" xml:space="preserve">
<g id="图层_1">
	<path d="M1722.93,86.31H449.97c-108.98,0-197.94,83.1-197.94,184.92v1501.84c0,20.59,18.03,37.43,40.07,37.43
		c22.44,0,40.07-16.85,40.07-37.43c0-7.49,0.8-14.97,2.4-22.09c0-0.37,0-0.37,0-0.75c8.41-40.43,38.87-71.5,80.54-82.35
		c3.61-1.12,7.21-1.87,11.22-2.62c7.61-1.49,15.63-2.25,23.64-2.25h1272.96c22.44,0,40.07-16.85,40.07-37.43V123.75
		C1763,103.16,1745.37,86.31,1722.93,86.31z M449.97,1588.15c-6.81,0-13.62,0.37-20.03,1.13c-6.81,0.37-13.22,1.49-19.63,2.62
		c-6.41,1.12-12.82,2.99-19.23,4.49c-21.64,5.99-41.27,14.97-58.9,26.95V271.24c0-60.64,52.89-110.06,117.8-110.06h1232.9v1426.97
		H449.97z"/>
	<g>
		<path d="M1722.93,1588.15H449.97c-6.81,0-13.62,0.37-20.03,1.13c-6.81,0.37-13.22,1.49-19.63,2.62
			c-6.41,1.12-12.82,2.99-19.23,4.49c-80.14,23.58-139.04,93.96-139.04,176.68c0,101.82,88.95,184.92,197.94,184.92h1272.96
			c22.44,0,40.07-16.85,40.07-37.43v-294.98C1763,1605,1745.37,1588.15,1722.93,1588.15z M1682.86,1883.13H449.97
			c-64.91,0-117.8-49.41-117.8-110.06c0-7.49,0.8-14.97,2.4-22.09c0-0.37,0-0.37,0-0.75c9.22-38.93,40.07-70.38,80.54-82.35
			c3.61-1.12,7.21-1.87,11.22-2.62c7.61-1.49,15.63-2.25,23.64-2.25h1232.9V1883.13z"/>
	</g>
</g>
<g id="图层_2_x5F_复制">
	<g>
		<path d="M1348.96,872.33c-16.3-107.9-54.1-199.26-101.45-246.41c-36.49-117.93-103.61-223.83-184.53-308.61l0.27-3.67
			c-29.76,3.18-57.55,18.54-82.9,36.77c-101.78,73.2-173.89,198.27-194.87,334.43c-0.48,3.12-0.92,6.24-1.35,9.36
			c-17.43,8-34.87,16.01-52.3,24.01c-13.4,6.15-27.74,13.2-35.14,27.48c-6.23,12.04-6.26,26.9-5.74,40.9
			c5.04,134.98,45.3,267.96,114.22,377.24c18.75-26.72,42.93-48.33,70.05-62.59l-2.3-10.54c34.5,51.74,76.51,96.31,118.43,140.33
			l-0.98,12.71c-57.27,51.68-96.96,128.58-109.03,211.26c83.15-63.57,198.68-65.25,283.2-4.11
			c-7.77-68.95-30.16-135.64-64.68-192.65c-3.21-5.3-6.6-10.71-7.79-17.02c-3.56-18.78,12.65-33.82,26.23-44.97
			c82.34-67.65,133.81-175.56,151.61-290.99l0.62,5.77c23.91-4.77,47.82-9.54,71.73-14.31c2.32-0.46,4.88-1.18,6.41-4.99
			C1350.72,886.61,1349.93,878.77,1348.96,872.33z"/>
	</g>
</g>
</svg>
